<svg xmlns="http://www.w3.org/2000/svg" viewBox="0 0 512 125">
  <path d="M512 125H0C0 55.96 56.3 0 125.75 0h260.5C455.7 0 512 55.96 512 125z" fill="#fbb540"/>
  <path fill="#ea9d2d" d="M107.79 71.48h17.96v17.96h-17.96z"/>
  <path fill="#ea9d2d" d="M179.65 71.48h17.96v17.96h-17.96z"/>
  <path fill="#ea9d2d" d="M242.53 71.48h17.96v17.96h-17.96z"/>
  <path fill="#ea9d2d" d="M314.39 71.48h17.96v17.96h-17.96z"/>
  <path fill="#ea9d2d" d="M386.25 71.48h17.96v17.96h-17.96z"/>
  <path fill="#ea9d2d" d="M215.58 35.55h17.96v17.96h-17.96z"/>
  <path fill="#ea9d2d" d="M278.46 35.55h17.96v17.96h-17.96z"/>
  <path fill="#ea9d2d" d="M350.32 35.55h17.96v17.96h-17.96z"/>
  <path fill="#ea9d2d" d="M143.72 35.55h17.96v17.96h-17.96z"/>
</svg>