<svg xmlns="http://www.w3.org/2000/svg" viewBox="0 0 64 64">
  <path d="M56.135 18.895l-.011-.046c-.704-2.677-3.153-4.547-5.956-4.547h-5.993v-3.394h8.659c.97 0 1.756-.776 1.756-1.733V3.733c0-.957-.786-1.733-1.756-1.733h-20.83c-.97 0-1.757.776-1.757 1.733v5.442c0 .957.786 1.733 1.756 1.733h8.66v3.394h-26.83c-2.803 0-5.252 1.87-5.956 4.547l-.012.046L1.876 44.54c.166-.014.333-.025.503-.025h59.243c.17 0 .337.01.503.025zm-5.432 8.013c0 .958-.786 1.733-1.756 1.733H15.054c-.97 0-1.756-.775-1.756-1.733v-4.04c0-.956.786-1.732 1.756-1.732h33.893c.97 0 1.756.776 1.756 1.733zm10.92 21.072H2.377C1.067 47.98 0 49.033 0 50.327v9.326C0 60.947 1.067 62 2.378 62h59.244C62.933 62 64 60.947 64 59.653v-9.326c0-1.294-1.067-2.347-2.378-2.347zm-24.264 7.293c0 1.764-1.455 3.198-3.242 3.198h-3.979c-1.787 0-3.24-1.435-3.24-3.198v-.566c0-1.764 1.454-3.198 3.24-3.198h3.979c1.787 0 3.241 1.435 3.241 3.198v.566z"/>
</svg>