<svg xmlns="http://www.w3.org/2000/svg" viewBox="0 0 512 72">
  <path fill="#f9e0a0" d="M36 0v72h440V0"/>
  <path d="M134.37 7.52l12.7 12.7-12.7 12.71-12.7-12.7z" fill="#f4ca62"/>
  <path d="M174.91 39.07l12.7 12.7-12.7 12.7-12.7-12.7z" fill="#f4ca62"/>
  <path d="M215.46 7.52l12.7 12.7-12.7 12.71-12.7-12.7z" fill="#f4ca62"/>
  <path d="M256 39.07l12.7 12.7-12.7 12.7-12.7-12.7z" fill="#f4ca62"/>
  <path d="M296.54 7.52l12.7 12.7-12.7 12.71-12.7-12.7z" fill="#f4ca62"/>
  <path d="M337.09 39.07l12.7 12.7-12.7 12.7-12.7-12.7z" fill="#f4ca62"/>
  <path d="M93.83 39.07l12.7 12.7-12.7 12.7-12.7-12.7z" fill="#f4ca62"/>
  <path d="M377.63 7.52l12.7 12.7-12.7 12.71-12.7-12.7z" fill="#f4ca62"/>
  <path d="M418.17 39.07l12.7 12.7-12.7 12.7-12.7-12.7z" fill="#f4ca62"/>
</svg>