<svg xmlns="http://www.w3.org/2000/svg" viewBox="0 0 64 64"><path d="M63.661 6.31L47.897 45.133a4.92 4.92 0 0 1-4.578 3.078 4.894 4.894 0 0 1-3.482-1.445l-8.306-8.306-6.902 6.903a2.458 2.458 0 0 1-.13 3.335L10.844 62.351A5.595 5.595 0 0 1 6.863 64a5.596 5.596 0 0 1-3.982-1.65l-1.232-1.23A5.594 5.594 0 0 1 0 57.136c0-1.505.586-2.918 1.65-3.982l13.652-13.652a2.46 2.46 0 0 1 3.336-.13l6.903-6.903-8.305-8.305a4.923 4.923 0 0 1-1.347-4.468 4.922 4.922 0 0 1 2.979-3.592L57.693.342A4.59 4.59 0 0 1 59.428 0a4.58 4.58 0 0 1 3.796 2.037 4.564 4.564 0 0 1 .437 4.273z"/></svg>