<svg xmlns="http://www.w3.org/2000/svg" viewBox="0 0 64 64">
  <path d="M9.582 8c-1.156 0-2.094.925-2.094 2.065v6.973H5.642c-1.157 0-2.094.925-2.094 2.065V36.49h21.17V32.11h14.564v4.378h21.17V19.103c0-1.14-.937-2.065-2.093-2.065h-1.847v-6.973c0-1.14-.937-2.065-2.093-2.065h-9.103c-1.156 0-2.094.925-2.094 2.065v6.973h-1.846c-1.156 0-2.094.925-2.094 2.065v2.163H24.718v-2.163c0-1.14-.937-2.065-2.093-2.065h-1.847v-6.973c0-1.14-.937-2.065-2.093-2.065zM2.094 40.619v4.32C.937 44.94 0 45.864 0 47.004v6.931C0 55.075.937 56 2.094 56h24.079c1.156 0 2.093-.925 2.093-2.065v-6.93c0-1.141-.937-2.066-2.093-2.066v-4.32zm35.733 0v4.32c-1.156 0-2.093.925-2.093 2.065v6.931c0 1.14.937 2.065 2.093 2.065h24.08C63.063 56 64 55.075 64 53.935v-6.93c0-1.141-.937-2.066-2.093-2.066v-4.32z"/>
</svg>