<svg xmlns="http://www.w3.org/2000/svg" viewBox="0 0 512 72">
  <path fill="#744630" d="M36 0h440v72H36z"/>
  <path fill="#533222" d="M100.04 47.01l-11 11.01L56 25l11.01-11z"/>
  <path fill="#533222" d="M218.7 47.01l-11.02 11.01L174.65 25l11.01-11z"/>
  <path fill="#533222" d="M278.02 47.01L267 58.02 233.98 25 245 14z"/>
  <path fill="#533222" d="M337.35 47.01l-11.01 11.01L293.3 25l11-11z"/>
  <path fill="#533222" d="M396.67 47.01l-11 11.01L352.62 25l11.01-11z"/>
  <path fill="#533222" d="M456 47.01l-11.01 11.01L411.96 25l11-11z"/>
  <path fill="#533222" d="M159.37 47.01l-11.01 11.01L115.33 25l11-11z"/>
</svg>