<svg xmlns="http://www.w3.org/2000/svg" viewBox="0 0 64 64">
  <path d="M63.297 6.702C62.83 6.234 62.272 6 61.631 6H23.704c-.642 0-1.198.234-1.666.702-.47.467-.704 1.022-.704 1.662v7.09h-5.926c-.667 0-1.39.16-2.167.48-.778.321-1.402.715-1.87 1.182L4.036 24.43c-.321.32-.598.69-.834 1.108a6.717 6.717 0 0 0-.518 1.126c-.111.333-.192.788-.24 1.367-.05.579-.081 1.003-.093 1.274-.012.27-.012.739 0 1.404.012.665.018 1.095.018 1.293v11.817c-.641 0-1.197.234-1.666.703-.47.466-.704 1.021-.704 1.661 0 .369.049.696.148.978.099.284.265.511.5.684.235.173.439.314.611.425.173.11.463.184.87.221.408.037.686.062.834.074.148.012.463.012.944 0 .482-.012.76-.018.834-.018h2.37c0 2.609.926 4.837 2.778 6.684C11.74 57.077 13.975 58 16.593 58c2.617 0 4.852-.923 6.703-2.77 1.852-1.847 2.778-4.075 2.778-6.684h14.223c0 2.609.926 4.837 2.777 6.684C44.926 57.077 47.16 58 49.778 58c2.618 0 4.851-.923 6.703-2.77 1.853-1.847 2.778-4.075 2.778-6.684.074 0 .352.006.833.018.482.012.797.012.945 0 .148-.012.426-.037.833-.074.408-.037.697-.11.87-.221.174-.11.377-.252.612-.425.234-.173.401-.4.5-.684.1-.283.148-.61.148-.978V8.364c0-.64-.234-1.194-.703-1.662zM19.925 51.87c-.937.935-2.049 1.404-3.333 1.404-1.284 0-2.395-.469-3.333-1.404-.939-.935-1.408-2.044-1.408-3.324 0-1.28.47-2.39 1.408-3.324.938-.935 2.05-1.404 3.333-1.404 1.284 0 2.396.468 3.333 1.404.94.935 1.408 2.044 1.408 3.324 0 1.28-.469 2.389-1.408 3.324zm1.408-22.233H7.111v-1.108c0-.32.11-.591.333-.813l7.222-7.201a1.11 1.11 0 0 1 .815-.332h5.852zM53.111 51.87c-.938.935-2.05 1.404-3.333 1.404-1.284 0-2.396-.469-3.334-1.404-.938-.935-1.407-2.044-1.407-3.324 0-1.28.469-2.39 1.407-3.324.938-.935 2.05-1.404 3.334-1.404 1.284 0 2.395.468 3.333 1.404.938.935 1.408 2.044 1.408 3.324 0 1.28-.47 2.389-1.408 3.324z"/>
</svg>